<svg width="34" height="40" viewBox="0 0 34 40" fill="none" xmlns="http://www.w3.org/2000/svg">
<g clip-path="url(#clip0_104_2783)">
<path d="M2.95861 20.3047H32.5215C32.9135 20.3047 33.2895 20.4604 33.5667 20.7376C33.8439 21.0148 33.9996 21.3908 33.9996 21.7828C33.9996 22.1749 33.8439 22.5508 33.5667 22.828C33.2895 23.1052 32.9135 23.261 32.5215 23.261H2.95861C2.56658 23.261 2.19061 23.1052 1.91341 22.828C1.6362 22.5508 1.48047 22.1749 1.48047 21.7828C1.48047 21.3908 1.6362 21.0148 1.91341 20.7376C2.19061 20.4604 2.56658 20.3047 2.95861 20.3047Z" fill="#A3A3A3"/>
<path d="M3.57088 21.7833L15.8306 34.0401C16.1082 34.3176 16.2641 34.6941 16.2641 35.0866C16.2641 35.4791 16.1082 35.8556 15.8306 36.1331C15.5531 36.4107 15.1766 36.5666 14.7841 36.5666C14.3916 36.5666 14.0151 36.4107 13.7376 36.1331L0.43426 22.8298C0.296606 22.6925 0.187392 22.5294 0.112875 22.3498C0.0383574 22.1702 0 21.9777 0 21.7833C0 21.5889 0.0383574 21.3964 0.112875 21.2168C0.187392 21.0372 0.296606 20.8741 0.43426 20.7368L13.7376 7.43348C14.0151 7.15593 14.3916 7 14.7841 7C15.1766 7 15.5531 7.15593 15.8306 7.43348C16.1082 7.71104 16.2641 8.08749 16.2641 8.48001C16.2641 8.87253 16.1082 9.24898 15.8306 9.52654L3.57088 21.7833Z" fill="#A3A3A3"/>
</g>
<defs>
<clipPath id="clip0_104_2783">
<rect width="34" height="40" fill="white"/>
</clipPath>
</defs>
</svg>
